<mxfile host="65bd71144e">
    <diagram id="X9YFU1M3zQTbdFv3TltE" name="pong 게임">
        <mxGraphModel dx="1803" dy="777" grid="1" gridSize="10" guides="1" tooltips="1" connect="1" arrows="1" fold="1" page="1" pageScale="1" pageWidth="1600" pageHeight="1200" background="none" math="0" shadow="0">
            <root>
                <mxCell id="0"/>
                <mxCell id="1" parent="0"/>
                <mxCell id="3" value="" style="rounded=0;whiteSpace=wrap;html=1;container=1;collapsible=0;expand=0;resizable=0;rotatable=0;movable=0;" parent="1" vertex="1">
                    <mxGeometry x="300" y="100" width="1000" height="500" as="geometry">
                        <mxRectangle x="270" y="120" width="50" height="40" as="alternateBounds"/>
                    </mxGeometry>
                </mxCell>
                <mxCell id="6" value="" style="ellipse;whiteSpace=wrap;html=1;aspect=fixed;fillColor=#FFFFFF;" parent="3" vertex="1">
                    <mxGeometry x="360" y="250" width="20" height="20" as="geometry"/>
                </mxCell>
                <mxCell id="25" value="" style="rounded=0;whiteSpace=wrap;html=1;fillColor=#FFFFFF;" parent="3" vertex="1">
                    <mxGeometry x="30" y="40" width="10" height="80" as="geometry"/>
                </mxCell>
                <mxCell id="27" value="0.16" style="shape=curlyBracket;whiteSpace=wrap;html=1;rounded=1;flipH=1;labelPosition=right;verticalLabelPosition=middle;align=left;verticalAlign=middle;fillColor=#FFFFFF;" parent="3" vertex="1">
                    <mxGeometry x="50" y="40" width="20" height="80" as="geometry"/>
                </mxCell>
                <mxCell id="28" value="0.02" style="shape=curlyBracket;whiteSpace=wrap;html=1;rounded=1;labelPosition=left;verticalLabelPosition=middle;align=right;verticalAlign=middle;fillColor=#FFFFFF;rotation=-90;rotatable=1;enumerate=0;" parent="3" vertex="1">
                    <mxGeometry x="28.75" y="131.75" width="12.5" height="10" as="geometry"/>
                </mxCell>
                <mxCell id="30" value="0.04" style="shape=curlyBracket;whiteSpace=wrap;html=1;rounded=1;flipH=1;labelPosition=right;verticalLabelPosition=middle;align=left;verticalAlign=middle;fillColor=#FFFFFF;" parent="3" vertex="1">
                    <mxGeometry x="390" y="250" width="20" height="20" as="geometry"/>
                </mxCell>
                <mxCell id="34" value="0.06&lt;br&gt;" style="shape=curlyBracket;whiteSpace=wrap;html=1;rounded=1;labelPosition=left;verticalLabelPosition=middle;align=right;verticalAlign=middle;fillColor=#FFFFFF;rotation=90;rotatable=1;enumerate=0;" parent="3" vertex="1">
                    <mxGeometry x="9.96" y="21.01" width="11.16" height="29.69" as="geometry"/>
                </mxCell>
                <mxCell id="38" value="" style="rounded=0;whiteSpace=wrap;html=1;fillColor=#FFFFFF;" parent="3" vertex="1">
                    <mxGeometry x="200" y="370" width="10" height="80" as="geometry"/>
                </mxCell>
                <mxCell id="40" style="edgeStyle=none;html=1;entryX=0.5;entryY=0;entryDx=0;entryDy=0;endArrow=none;endFill=0;rounded=0;" parent="3" source="41" edge="1">
                    <mxGeometry relative="1" as="geometry">
                        <mxPoint x="205" y="370" as="targetPoint"/>
                        <Array as="points">
                            <mxPoint x="250" y="305"/>
                        </Array>
                    </mxGeometry>
                </mxCell>
                <mxCell id="41" value="secondary player" style="text;html=1;strokeColor=none;fillColor=none;align=center;verticalAlign=middle;whiteSpace=wrap;rounded=0;" parent="3" vertex="1">
                    <mxGeometry x="290" y="290" width="110" height="30" as="geometry"/>
                </mxCell>
                <mxCell id="42" value="0.16" style="shape=curlyBracket;whiteSpace=wrap;html=1;rounded=1;flipH=1;labelPosition=right;verticalLabelPosition=middle;align=left;verticalAlign=middle;fillColor=#FFFFFF;" parent="3" vertex="1">
                    <mxGeometry x="220" y="370" width="20" height="80" as="geometry"/>
                </mxCell>
                <mxCell id="43" value="0.02" style="shape=curlyBracket;whiteSpace=wrap;html=1;rounded=1;labelPosition=left;verticalLabelPosition=middle;align=right;verticalAlign=middle;fillColor=#FFFFFF;rotation=-90;rotatable=0;enumerate=0;expand=0;resizable=0;recursiveResize=1;cloneable=1;" parent="3" vertex="1">
                    <mxGeometry x="198.75" y="460" width="12.5" height="10" as="geometry"/>
                </mxCell>
                <mxCell id="45" value="0.4" style="shape=curlyBracket;whiteSpace=wrap;html=1;rounded=1;labelPosition=left;verticalLabelPosition=middle;align=right;verticalAlign=middle;fillColor=#FFFFFF;rotation=90;rotatable=1;enumerate=0;" parent="3" vertex="1">
                    <mxGeometry x="95" y="255" width="11.16" height="200" as="geometry"/>
                </mxCell>
                <mxCell id="46" style="edgeStyle=none;html=1;entryX=0.712;entryY=0.054;entryDx=0;entryDy=0;endArrow=none;endFill=0;rounded=0;entryPerimeter=0;" parent="3" source="47" target="6" edge="1">
                    <mxGeometry relative="1" as="geometry">
                        <mxPoint x="370" y="250" as="targetPoint"/>
                        <Array as="points">
                            <mxPoint x="400" y="215"/>
                        </Array>
                    </mxGeometry>
                </mxCell>
                <mxCell id="47" value="ball" style="text;html=1;strokeColor=none;fillColor=none;align=center;verticalAlign=middle;whiteSpace=wrap;rounded=0;" parent="3" vertex="1">
                    <mxGeometry x="430" y="200" width="30" height="30" as="geometry"/>
                </mxCell>
                <mxCell id="5" value="" style="endArrow=none;dashed=1;html=1;dashPattern=1 3;strokeWidth=2;exitX=0.5;exitY=1;exitDx=0;exitDy=0;entryX=0.5;entryY=0;entryDx=0;entryDy=0;" parent="1" source="3" target="3" edge="1">
                    <mxGeometry width="50" height="50" relative="1" as="geometry">
                        <mxPoint x="770" y="350" as="sourcePoint"/>
                        <mxPoint x="1210" y="690" as="targetPoint"/>
                    </mxGeometry>
                </mxCell>
                <mxCell id="9" style="edgeStyle=none;html=1;entryX=0;entryY=1;entryDx=0;entryDy=0;" parent="1" source="8" target="3" edge="1">
                    <mxGeometry relative="1" as="geometry"/>
                </mxCell>
                <mxCell id="8" value="(-1,0)" style="text;html=1;strokeColor=none;fillColor=none;align=center;verticalAlign=middle;whiteSpace=wrap;rounded=0;" parent="1" vertex="1">
                    <mxGeometry x="180" y="620" width="60" height="30" as="geometry"/>
                </mxCell>
                <mxCell id="10" value="(0,0)" style="text;html=1;strokeColor=none;fillColor=none;align=center;verticalAlign=middle;whiteSpace=wrap;rounded=0;" parent="1" vertex="1">
                    <mxGeometry x="770" y="610" width="60" height="30" as="geometry"/>
                </mxCell>
                <mxCell id="11" value="" style="endArrow=classic;html=1;exitX=0.5;exitY=1;exitDx=0;exitDy=0;" parent="1" source="3" edge="1">
                    <mxGeometry width="50" height="50" relative="1" as="geometry">
                        <mxPoint x="770" y="360" as="sourcePoint"/>
                        <mxPoint x="1530" y="600" as="targetPoint"/>
                    </mxGeometry>
                </mxCell>
                <mxCell id="12" value="" style="endArrow=classic;html=1;exitX=0.5;exitY=0;exitDx=0;exitDy=0;" parent="1" source="3" edge="1">
                    <mxGeometry width="50" height="50" relative="1" as="geometry">
                        <mxPoint x="810" y="610" as="sourcePoint"/>
                        <mxPoint x="800" y="22" as="targetPoint"/>
                    </mxGeometry>
                </mxCell>
                <mxCell id="13" value="x" style="text;html=1;strokeColor=none;fillColor=none;align=center;verticalAlign=middle;whiteSpace=wrap;rounded=0;" parent="1" vertex="1">
                    <mxGeometry x="1510" y="585" width="60" height="30" as="geometry"/>
                </mxCell>
                <mxCell id="14" value="y" style="text;html=1;strokeColor=none;fillColor=none;align=center;verticalAlign=middle;whiteSpace=wrap;rounded=0;" parent="1" vertex="1">
                    <mxGeometry x="770" width="60" height="30" as="geometry"/>
                </mxCell>
                <mxCell id="23" style="edgeStyle=none;html=1;entryX=1;entryY=0;entryDx=0;entryDy=0;" parent="1" source="15" target="3" edge="1">
                    <mxGeometry relative="1" as="geometry"/>
                </mxCell>
                <mxCell id="15" value="(1,1)" style="text;html=1;strokeColor=none;fillColor=none;align=center;verticalAlign=middle;whiteSpace=wrap;rounded=0;" parent="1" vertex="1">
                    <mxGeometry x="1310" y="60" width="60" height="30" as="geometry"/>
                </mxCell>
                <mxCell id="24" style="edgeStyle=none;html=1;entryX=0;entryY=0;entryDx=0;entryDy=0;" parent="1" source="16" target="3" edge="1">
                    <mxGeometry relative="1" as="geometry"/>
                </mxCell>
                <mxCell id="16" value="(-1,1)" style="text;html=1;strokeColor=none;fillColor=none;align=center;verticalAlign=middle;whiteSpace=wrap;rounded=0;" parent="1" vertex="1">
                    <mxGeometry x="220" y="50" width="60" height="30" as="geometry"/>
                </mxCell>
                <mxCell id="18" style="edgeStyle=none;html=1;" parent="1" source="17" edge="1">
                    <mxGeometry relative="1" as="geometry">
                        <mxPoint x="1300" y="600" as="targetPoint"/>
                    </mxGeometry>
                </mxCell>
                <mxCell id="17" value="(1,0)" style="text;html=1;strokeColor=none;fillColor=none;align=center;verticalAlign=middle;whiteSpace=wrap;rounded=0;" parent="1" vertex="1">
                    <mxGeometry x="1320" y="630" width="60" height="30" as="geometry"/>
                </mxCell>
                <mxCell id="20" style="edgeStyle=none;html=1;" parent="1" source="19" edge="1">
                    <mxGeometry relative="1" as="geometry">
                        <mxPoint x="800" y="100" as="targetPoint"/>
                    </mxGeometry>
                </mxCell>
                <mxCell id="19" value="(0,1)" style="text;html=1;strokeColor=none;fillColor=none;align=center;verticalAlign=middle;whiteSpace=wrap;rounded=0;" parent="1" vertex="1">
                    <mxGeometry x="820" y="50" width="60" height="30" as="geometry"/>
                </mxCell>
                <mxCell id="37" style="edgeStyle=none;html=1;entryX=0.5;entryY=0;entryDx=0;entryDy=0;endArrow=none;endFill=0;rounded=0;" parent="1" source="36" target="25" edge="1">
                    <mxGeometry relative="1" as="geometry">
                        <Array as="points">
                            <mxPoint x="380" y="75"/>
                        </Array>
                    </mxGeometry>
                </mxCell>
                <mxCell id="36" value="primary player" style="text;html=1;strokeColor=none;fillColor=none;align=center;verticalAlign=middle;whiteSpace=wrap;rounded=0;" parent="1" vertex="1">
                    <mxGeometry x="420" y="60" width="90" height="30" as="geometry"/>
                </mxCell>
                <mxCell id="60" value="&lt;h1&gt;GAME API scheme&lt;/h1&gt;&lt;div&gt;1. 패들이동(시간, 방향 : {위, 아래, 멈춤})&lt;/div&gt;&lt;div&gt;2. 공 튕김(시간, 공 방향)&lt;/div&gt;&lt;div&gt;3. 현재 상황 요청&lt;/div&gt;&lt;div&gt;&lt;br&gt;&lt;/div&gt;" style="text;html=1;strokeColor=none;fillColor=none;spacing=5;spacingTop=-20;whiteSpace=wrap;overflow=hidden;rounded=0;" parent="1" vertex="1">
                    <mxGeometry x="330" y="880" width="250" height="120" as="geometry"/>
                </mxCell>
                <mxCell id="61" value="클라이언트" style="rounded=1;whiteSpace=wrap;html=1;" parent="1" vertex="1">
                    <mxGeometry x="180" y="760" width="130" height="120" as="geometry"/>
                </mxCell>
                <mxCell id="62" style="edgeStyle=none;html=1;entryX=0;entryY=0.5;entryDx=0;entryDy=0;startArrow=classic;startFill=1;" parent="1" source="63" target="64" edge="1">
                    <mxGeometry relative="1" as="geometry"/>
                </mxCell>
                <mxCell id="63" value="게임 서버" style="rounded=1;whiteSpace=wrap;html=1;" parent="1" vertex="1">
                    <mxGeometry x="750" y="870" width="130" height="120" as="geometry"/>
                </mxCell>
                <mxCell id="64" value="웹 서버" style="rounded=1;whiteSpace=wrap;html=1;" parent="1" vertex="1">
                    <mxGeometry x="1240" y="870" width="130" height="120" as="geometry"/>
                </mxCell>
                <mxCell id="65" style="edgeStyle=none;html=1;startArrow=classic;startFill=1;" parent="1" source="66" target="63" edge="1">
                    <mxGeometry relative="1" as="geometry"/>
                </mxCell>
                <mxCell id="66" value="클라이언트" style="rounded=1;whiteSpace=wrap;html=1;" parent="1" vertex="1">
                    <mxGeometry x="180" y="980" width="130" height="120" as="geometry"/>
                </mxCell>
                <mxCell id="67" style="edgeStyle=none;html=1;startArrow=classic;startFill=1;exitX=1;exitY=0.5;exitDx=0;exitDy=0;entryX=-0.01;entryY=0.416;entryDx=0;entryDy=0;entryPerimeter=0;" parent="1" source="61" target="63" edge="1">
                    <mxGeometry relative="1" as="geometry">
                        <mxPoint x="320" y="1037.4561403508771" as="sourcePoint"/>
                        <mxPoint x="760" y="952.5438596491229" as="targetPoint"/>
                    </mxGeometry>
                </mxCell>
                <mxCell id="68" value="&lt;h1&gt;RESULT API scheme&lt;/h1&gt;&lt;div&gt;1. 게임 생성 (플레이어1, 플레이어2, 게임 식별자 등)&lt;/div&gt;&lt;div&gt;&lt;br&gt;&lt;/div&gt;&lt;div&gt;&lt;br&gt;&lt;/div&gt;&lt;div&gt;1. 게임 결과 보고 (게임 식별자, 결과 데이터 등)&lt;/div&gt;" style="text;html=1;strokeColor=none;fillColor=none;spacing=5;spacingTop=-20;whiteSpace=wrap;overflow=hidden;rounded=0;" parent="1" vertex="1">
                    <mxGeometry x="920" y="800" width="290" height="120" as="geometry"/>
                </mxCell>
                <mxCell id="69" value="&lt;font style=&quot;font-size: 49px;&quot;&gt;&lt;b&gt;pong&lt;br&gt;game&lt;/b&gt;&lt;/font&gt;" style="text;strokeColor=none;fillColor=none;align=left;verticalAlign=middle;spacingLeft=4;spacingRight=4;overflow=hidden;points=[[0,0.5],[1,0.5]];portConstraint=eastwest;rotatable=0;whiteSpace=wrap;html=1;" parent="1" vertex="1">
                    <mxGeometry x="30" y="20" width="150" height="150" as="geometry"/>
                </mxCell>
            </root>
        </mxGraphModel>
    </diagram>
    <diagram id="ca_aAwq-7KcnAU3wva2U" name="페이지-2">
        <mxGraphModel dx="1803" dy="777" grid="1" gridSize="10" guides="1" tooltips="1" connect="1" arrows="1" fold="1" page="1" pageScale="1" pageWidth="1600" pageHeight="1200" math="0" shadow="0">
            <root>
                <mxCell id="0"/>
                <mxCell id="1" parent="0"/>
                <mxCell id="wrJQAMFwZ7wzQ0r5Eu7k-1" value="&lt;font style=&quot;font-size: 49px;&quot;&gt;&lt;b&gt;pong game&lt;br&gt;상태 다이어그램&lt;br&gt;&lt;/b&gt;&lt;/font&gt;" style="text;strokeColor=none;fillColor=none;align=left;verticalAlign=middle;spacingLeft=4;spacingRight=4;overflow=hidden;points=[[0,0.5],[1,0.5]];portConstraint=eastwest;rotatable=0;whiteSpace=wrap;html=1;" vertex="1" parent="1">
                    <mxGeometry x="30" y="20" width="330" height="150" as="geometry"/>
                </mxCell>
                <mxCell id="wrJQAMFwZ7wzQ0r5Eu7k-6" value="게임 서버" style="rounded=0;whiteSpace=wrap;html=1;fontSize=19;container=1;collapsible=0;align=left;verticalAlign=top;horizontal=1;" vertex="1" parent="1">
                    <mxGeometry x="580" y="260" width="530" height="500" as="geometry"/>
                </mxCell>
                <mxCell id="Sps-kp6j8fGS_Ys6VKAJ-1" value="게임 진행" style="rounded=1;whiteSpace=wrap;html=1;" vertex="1" parent="wrJQAMFwZ7wzQ0r5Eu7k-6">
                    <mxGeometry x="205.16129032258064" y="172.72727272727272" width="102.58064516129032" height="63.63636363636363" as="geometry"/>
                </mxCell>
                <mxCell id="wrJQAMFwZ7wzQ0r5Eu7k-2" value="게임 준비" style="rounded=1;whiteSpace=wrap;html=1;" vertex="1" parent="wrJQAMFwZ7wzQ0r5Eu7k-6">
                    <mxGeometry x="34.193548387096776" y="172.72727272727272" width="102.58064516129032" height="63.63636363636363" as="geometry"/>
                </mxCell>
                <mxCell id="wrJQAMFwZ7wzQ0r5Eu7k-3" value="게임 완료" style="rounded=1;whiteSpace=wrap;html=1;" vertex="1" parent="wrJQAMFwZ7wzQ0r5Eu7k-6">
                    <mxGeometry x="384.6774193548387" y="172.72727272727272" width="102.58064516129032" height="63.63636363636363" as="geometry"/>
                </mxCell>
                <mxCell id="wrJQAMFwZ7wzQ0r5Eu7k-4" value="게임 일시중지" style="rounded=1;whiteSpace=wrap;html=1;" vertex="1" parent="wrJQAMFwZ7wzQ0r5Eu7k-6">
                    <mxGeometry x="205.16129032258064" y="295.45454545454544" width="102.58064516129032" height="63.63636363636363" as="geometry"/>
                </mxCell>
                <mxCell id="wrJQAMFwZ7wzQ0r5Eu7k-7" value="게임 서버" style="rounded=0;whiteSpace=wrap;html=1;fontSize=19;container=1;collapsible=0;align=left;verticalAlign=top;horizontal=1;" vertex="1" parent="1">
                    <mxGeometry x="20" y="260" width="530" height="500" as="geometry"/>
                </mxCell>
                <mxCell id="wrJQAMFwZ7wzQ0r5Eu7k-8" value="게임 진행" style="rounded=1;whiteSpace=wrap;html=1;" vertex="1" parent="wrJQAMFwZ7wzQ0r5Eu7k-7">
                    <mxGeometry x="205.16129032258064" y="172.72727272727272" width="102.58064516129032" height="63.63636363636363" as="geometry"/>
                </mxCell>
                <mxCell id="wrJQAMFwZ7wzQ0r5Eu7k-9" value="게임 준비" style="rounded=1;whiteSpace=wrap;html=1;" vertex="1" parent="wrJQAMFwZ7wzQ0r5Eu7k-7">
                    <mxGeometry x="34.193548387096776" y="172.72727272727272" width="102.58064516129032" height="63.63636363636363" as="geometry"/>
                </mxCell>
                <mxCell id="wrJQAMFwZ7wzQ0r5Eu7k-10" value="게임 완료" style="rounded=1;whiteSpace=wrap;html=1;" vertex="1" parent="wrJQAMFwZ7wzQ0r5Eu7k-7">
                    <mxGeometry x="384.6774193548387" y="172.72727272727272" width="102.58064516129032" height="63.63636363636363" as="geometry"/>
                </mxCell>
                <mxCell id="wrJQAMFwZ7wzQ0r5Eu7k-11" value="게임 일시중지" style="rounded=1;whiteSpace=wrap;html=1;" vertex="1" parent="wrJQAMFwZ7wzQ0r5Eu7k-7">
                    <mxGeometry x="205.16129032258064" y="295.45454545454544" width="102.58064516129032" height="63.63636363636363" as="geometry"/>
                </mxCell>
                <mxCell id="wrJQAMFwZ7wzQ0r5Eu7k-12" value="웹서버" style="rounded=0;whiteSpace=wrap;html=1;fontSize=19;container=1;collapsible=0;align=left;verticalAlign=top;horizontal=1;" vertex="1" parent="1">
                    <mxGeometry x="1130" y="260" width="530" height="500" as="geometry"/>
                </mxCell>
                <mxCell id="wrJQAMFwZ7wzQ0r5Eu7k-14" value="게임 생성" style="rounded=1;whiteSpace=wrap;html=1;" vertex="1" parent="wrJQAMFwZ7wzQ0r5Eu7k-12">
                    <mxGeometry x="34.193548387096776" y="172.72727272727272" width="102.58064516129032" height="63.63636363636363" as="geometry"/>
                </mxCell>
                <mxCell id="wrJQAMFwZ7wzQ0r5Eu7k-16" value="게임 종료" style="rounded=1;whiteSpace=wrap;html=1;" vertex="1" parent="wrJQAMFwZ7wzQ0r5Eu7k-12">
                    <mxGeometry x="34.19129032258064" y="295.45454545454544" width="102.58064516129032" height="63.63636363636363" as="geometry"/>
                </mxCell>
            </root>
        </mxGraphModel>
    </diagram>
    <diagram id="cKjNJEI_JPijRERl9RBU" name="pong game 좌표계">
        <mxGraphModel dx="2576" dy="1110" grid="1" gridSize="10" guides="1" tooltips="1" connect="1" arrows="1" fold="1" page="1" pageScale="1" pageWidth="1600" pageHeight="1200" math="0" shadow="0">
            <root>
                <mxCell id="0"/>
                <mxCell id="1" parent="0"/>
                <mxCell id="5qYnqCfXjX5k3qRVBmzN-1" value="&lt;font style=&quot;font-size: 49px;&quot;&gt;&lt;b&gt;pong game&lt;br&gt;좌표계&lt;br&gt;&lt;/b&gt;&lt;/font&gt;" style="text;strokeColor=none;fillColor=none;align=left;verticalAlign=middle;spacingLeft=4;spacingRight=4;overflow=hidden;points=[[0,0.5],[1,0.5]];portConstraint=eastwest;rotatable=0;whiteSpace=wrap;html=1;" vertex="1" parent="1">
                    <mxGeometry x="30" y="20" width="330" height="150" as="geometry"/>
                </mxCell>
                <mxCell id="LkHLdnh0RMzw2wmdkYhH-1" value="x" style="text;html=1;strokeColor=none;fillColor=none;align=center;verticalAlign=middle;whiteSpace=wrap;rounded=0;fontSize=34;" vertex="1" parent="1">
                    <mxGeometry x="1470" y="495" width="60" height="45" as="geometry"/>
                </mxCell>
                <mxCell id="LkHLdnh0RMzw2wmdkYhH-2" value="y" style="text;html=1;strokeColor=none;fillColor=none;align=center;verticalAlign=middle;whiteSpace=wrap;rounded=0;fontSize=34;" vertex="1" parent="1">
                    <mxGeometry x="730" y="25" width="60" height="50" as="geometry"/>
                </mxCell>
                <mxCell id="LkHLdnh0RMzw2wmdkYhH-3" value="" style="rounded=0;whiteSpace=wrap;html=1;fontSize=19;labelBackgroundColor=none;fillColor=#403152;fillStyle=solid;container=1;collapsible=0;strokeWidth=3;perimeterSpacing=0;" vertex="1" parent="1">
                    <mxGeometry x="680" y="440" width="160" height="80" as="geometry"/>
                </mxCell>
                <mxCell id="LkHLdnh0RMzw2wmdkYhH-4" value="" style="rounded=0;whiteSpace=wrap;html=1;labelBackgroundColor=none;fillStyle=solid;fontSize=19;fillColor=#DBD9DA;gradientColor=none;" vertex="1" parent="LkHLdnh0RMzw2wmdkYhH-3">
                    <mxGeometry x="10" y="10" width="10" height="30" as="geometry"/>
                </mxCell>
                <mxCell id="LkHLdnh0RMzw2wmdkYhH-5" value="" style="ellipse;whiteSpace=wrap;html=1;aspect=fixed;labelBackgroundColor=none;fillStyle=solid;fontSize=19;fillColor=#DBD9DA;gradientColor=none;" vertex="1" parent="LkHLdnh0RMzw2wmdkYhH-3">
                    <mxGeometry x="100" y="60" width="10" height="10" as="geometry"/>
                </mxCell>
                <mxCell id="LkHLdnh0RMzw2wmdkYhH-6" value="" style="rounded=0;whiteSpace=wrap;html=1;labelBackgroundColor=none;fillStyle=solid;fontSize=19;fillColor=#DB9398;gradientColor=none;" vertex="1" parent="LkHLdnh0RMzw2wmdkYhH-3">
                    <mxGeometry x="140" y="25" width="10" height="30" as="geometry"/>
                </mxCell>
                <mxCell id="LkHLdnh0RMzw2wmdkYhH-7" value="" style="rounded=0;whiteSpace=wrap;html=1;fontSize=19;labelBackgroundColor=none;fillColor=#693567;fillStyle=hatch;container=1;collapsible=0;strokeWidth=3;" vertex="1" parent="1">
                    <mxGeometry x="680" y="520" width="160" height="80" as="geometry"/>
                </mxCell>
                <mxCell id="LkHLdnh0RMzw2wmdkYhH-8" value="" style="rounded=0;whiteSpace=wrap;html=1;labelBackgroundColor=none;fillStyle=solid;fontSize=19;fillColor=#DBD9DA;gradientColor=none;" vertex="1" parent="LkHLdnh0RMzw2wmdkYhH-7">
                    <mxGeometry x="10" y="40" width="10" height="30.000000000000004" as="geometry"/>
                </mxCell>
                <mxCell id="LkHLdnh0RMzw2wmdkYhH-9" value="" style="ellipse;whiteSpace=wrap;html=1;aspect=fixed;labelBackgroundColor=none;fillStyle=solid;fontSize=19;fillColor=#DBD9DA;gradientColor=none;" vertex="1" parent="LkHLdnh0RMzw2wmdkYhH-7">
                    <mxGeometry x="100" y="10.000000000000007" width="9.375" height="9.375" as="geometry"/>
                </mxCell>
                <mxCell id="LkHLdnh0RMzw2wmdkYhH-10" value="" style="rounded=0;whiteSpace=wrap;html=1;labelBackgroundColor=none;fillStyle=solid;fontSize=19;fillColor=#DB9398;gradientColor=none;" vertex="1" parent="LkHLdnh0RMzw2wmdkYhH-7">
                    <mxGeometry x="140" y="25.000000000000004" width="10" height="30.000000000000004" as="geometry"/>
                </mxCell>
                <mxCell id="LkHLdnh0RMzw2wmdkYhH-319" value="O" style="text;html=1;strokeColor=none;fillColor=none;align=center;verticalAlign=middle;whiteSpace=wrap;rounded=0;labelBackgroundColor=none;fillStyle=solid;fontSize=31;" vertex="1" parent="LkHLdnh0RMzw2wmdkYhH-7">
                    <mxGeometry x="40" y="-0.31" width="40" height="40.31" as="geometry"/>
                </mxCell>
                <mxCell id="LkHLdnh0RMzw2wmdkYhH-180" value="" style="rounded=0;whiteSpace=wrap;html=1;fontSize=19;labelBackgroundColor=none;fillColor=#8F5069;fillStyle=hatch;container=1;collapsible=0;" vertex="1" parent="1">
                    <mxGeometry x="680" y="280" width="160" height="80" as="geometry"/>
                </mxCell>
                <mxCell id="LkHLdnh0RMzw2wmdkYhH-181" value="" style="rounded=0;whiteSpace=wrap;html=1;labelBackgroundColor=none;fillStyle=solid;fontSize=19;fillColor=#DBD9DA;gradientColor=none;" vertex="1" parent="LkHLdnh0RMzw2wmdkYhH-180">
                    <mxGeometry x="10" y="10" width="10" height="30" as="geometry"/>
                </mxCell>
                <mxCell id="LkHLdnh0RMzw2wmdkYhH-182" value="" style="ellipse;whiteSpace=wrap;html=1;aspect=fixed;labelBackgroundColor=none;fillStyle=solid;fontSize=19;fillColor=#DBD9DA;gradientColor=none;" vertex="1" parent="LkHLdnh0RMzw2wmdkYhH-180">
                    <mxGeometry x="100" y="60" width="10" height="10" as="geometry"/>
                </mxCell>
                <mxCell id="LkHLdnh0RMzw2wmdkYhH-183" value="" style="rounded=0;whiteSpace=wrap;html=1;labelBackgroundColor=none;fillStyle=solid;fontSize=19;fillColor=#dc9398;gradientColor=none;" vertex="1" parent="LkHLdnh0RMzw2wmdkYhH-180">
                    <mxGeometry x="140" y="25" width="10" height="30" as="geometry"/>
                </mxCell>
                <mxCell id="LkHLdnh0RMzw2wmdkYhH-184" value="" style="rounded=0;whiteSpace=wrap;html=1;fontSize=19;labelBackgroundColor=none;fillColor=#8F5069;fillStyle=hatch;container=1;collapsible=0;" vertex="1" parent="1">
                    <mxGeometry x="680" y="360" width="160" height="80" as="geometry"/>
                </mxCell>
                <mxCell id="LkHLdnh0RMzw2wmdkYhH-185" value="" style="rounded=0;whiteSpace=wrap;html=1;labelBackgroundColor=none;fillStyle=solid;fontSize=19;fillColor=#DBD9DA;gradientColor=none;" vertex="1" parent="LkHLdnh0RMzw2wmdkYhH-184">
                    <mxGeometry x="10" y="40" width="10" height="30.000000000000004" as="geometry"/>
                </mxCell>
                <mxCell id="LkHLdnh0RMzw2wmdkYhH-186" value="" style="ellipse;whiteSpace=wrap;html=1;aspect=fixed;labelBackgroundColor=none;fillStyle=solid;fontSize=19;fillColor=#DBD9DA;gradientColor=none;" vertex="1" parent="LkHLdnh0RMzw2wmdkYhH-184">
                    <mxGeometry x="100" y="10.000000000000007" width="9.375" height="9.375" as="geometry"/>
                </mxCell>
                <mxCell id="LkHLdnh0RMzw2wmdkYhH-187" value="" style="rounded=0;whiteSpace=wrap;html=1;labelBackgroundColor=none;fillStyle=solid;fontSize=19;fillColor=#dc9398;gradientColor=none;" vertex="1" parent="LkHLdnh0RMzw2wmdkYhH-184">
                    <mxGeometry x="140" y="25.000000000000004" width="10" height="30.000000000000004" as="geometry"/>
                </mxCell>
                <mxCell id="LkHLdnh0RMzw2wmdkYhH-230" value="" style="rounded=0;whiteSpace=wrap;html=1;fontSize=19;labelBackgroundColor=none;fillColor=#8F5069;fillStyle=hatch;container=1;collapsible=0;" vertex="1" parent="1">
                    <mxGeometry x="680" y="600" width="160" height="80" as="geometry"/>
                </mxCell>
                <mxCell id="LkHLdnh0RMzw2wmdkYhH-231" value="" style="rounded=0;whiteSpace=wrap;html=1;labelBackgroundColor=none;fillStyle=solid;fontSize=19;fillColor=#DBD9DA;gradientColor=none;" vertex="1" parent="LkHLdnh0RMzw2wmdkYhH-230">
                    <mxGeometry x="10" y="10" width="10" height="30" as="geometry"/>
                </mxCell>
                <mxCell id="LkHLdnh0RMzw2wmdkYhH-232" value="" style="ellipse;whiteSpace=wrap;html=1;aspect=fixed;labelBackgroundColor=none;fillStyle=solid;fontSize=19;fillColor=#DBD9DA;gradientColor=none;" vertex="1" parent="LkHLdnh0RMzw2wmdkYhH-230">
                    <mxGeometry x="100" y="60" width="10" height="10" as="geometry"/>
                </mxCell>
                <mxCell id="LkHLdnh0RMzw2wmdkYhH-233" value="" style="rounded=0;whiteSpace=wrap;html=1;labelBackgroundColor=none;fillStyle=solid;fontSize=19;fillColor=#dc9398;gradientColor=none;" vertex="1" parent="LkHLdnh0RMzw2wmdkYhH-230">
                    <mxGeometry x="140" y="25" width="10" height="30" as="geometry"/>
                </mxCell>
                <mxCell id="LkHLdnh0RMzw2wmdkYhH-234" value="" style="rounded=0;whiteSpace=wrap;html=1;fontSize=19;labelBackgroundColor=none;fillColor=#8F5069;fillStyle=hatch;container=1;collapsible=0;" vertex="1" parent="1">
                    <mxGeometry x="680" y="680" width="160" height="80" as="geometry"/>
                </mxCell>
                <mxCell id="LkHLdnh0RMzw2wmdkYhH-235" value="" style="rounded=0;whiteSpace=wrap;html=1;labelBackgroundColor=none;fillStyle=solid;fontSize=19;fillColor=#DBD9DA;gradientColor=none;" vertex="1" parent="LkHLdnh0RMzw2wmdkYhH-234">
                    <mxGeometry x="10" y="40" width="10" height="30.000000000000004" as="geometry"/>
                </mxCell>
                <mxCell id="LkHLdnh0RMzw2wmdkYhH-236" value="" style="ellipse;whiteSpace=wrap;html=1;aspect=fixed;labelBackgroundColor=none;fillStyle=solid;fontSize=19;fillColor=#DBD9DA;gradientColor=none;" vertex="1" parent="LkHLdnh0RMzw2wmdkYhH-234">
                    <mxGeometry x="100" y="10.000000000000007" width="9.375" height="9.375" as="geometry"/>
                </mxCell>
                <mxCell id="LkHLdnh0RMzw2wmdkYhH-237" value="" style="rounded=0;whiteSpace=wrap;html=1;labelBackgroundColor=none;fillStyle=solid;fontSize=19;fillColor=#dc9398;gradientColor=none;" vertex="1" parent="LkHLdnh0RMzw2wmdkYhH-234">
                    <mxGeometry x="140" y="25.000000000000004" width="10" height="30.000000000000004" as="geometry"/>
                </mxCell>
                <mxCell id="LkHLdnh0RMzw2wmdkYhH-318" value="" style="endArrow=classic;html=1;fontSize=19;entryX=0;entryY=0;entryDx=0;entryDy=0;exitX=0;exitY=0.5;exitDx=0;exitDy=0;" edge="1" parent="1" source="LkHLdnh0RMzw2wmdkYhH-320">
                    <mxGeometry width="50" height="50" relative="1" as="geometry">
                        <mxPoint x="1270" y="630" as="sourcePoint"/>
                        <mxPoint x="840" y="519.9999999999998" as="targetPoint"/>
                    </mxGeometry>
                </mxCell>
                <mxCell id="LkHLdnh0RMzw2wmdkYhH-320" value="(1,0)" style="text;html=1;strokeColor=none;fillColor=none;align=center;verticalAlign=middle;whiteSpace=wrap;rounded=0;labelBackgroundColor=none;fillStyle=solid;fontSize=31;" vertex="1" parent="1">
                    <mxGeometry x="1250" y="680" width="60" height="30" as="geometry"/>
                </mxCell>
                <mxCell id="LkHLdnh0RMzw2wmdkYhH-322" style="edgeStyle=none;html=1;entryX=1;entryY=0;entryDx=0;entryDy=0;strokeWidth=1;fontSize=31;" edge="1" parent="1" source="LkHLdnh0RMzw2wmdkYhH-321" target="LkHLdnh0RMzw2wmdkYhH-3">
                    <mxGeometry relative="1" as="geometry"/>
                </mxCell>
                <mxCell id="LkHLdnh0RMzw2wmdkYhH-321" value="(1,1)" style="text;html=1;strokeColor=none;fillColor=none;align=center;verticalAlign=middle;whiteSpace=wrap;rounded=0;labelBackgroundColor=none;fillStyle=solid;fontSize=31;" vertex="1" parent="1">
                    <mxGeometry x="970" y="110" width="60" height="30" as="geometry"/>
                </mxCell>
                <mxCell id="Eylq4QDpo2vBUsd32Ho0-1" style="edgeStyle=none;html=1;entryX=0;entryY=0;entryDx=0;entryDy=0;strokeWidth=1;fontSize=34;" edge="1" parent="1" source="LkHLdnh0RMzw2wmdkYhH-323" target="LkHLdnh0RMzw2wmdkYhH-3">
                    <mxGeometry relative="1" as="geometry"/>
                </mxCell>
                <mxCell id="LkHLdnh0RMzw2wmdkYhH-323" value="(-1,1)" style="text;html=1;strokeColor=none;fillColor=none;align=center;verticalAlign=middle;whiteSpace=wrap;rounded=0;labelBackgroundColor=none;fillStyle=solid;fontSize=31;" vertex="1" parent="1">
                    <mxGeometry x="210" y="210" width="60" height="30" as="geometry"/>
                </mxCell>
                <mxCell id="LkHLdnh0RMzw2wmdkYhH-326" style="edgeStyle=none;html=1;entryX=1;entryY=0;entryDx=0;entryDy=0;strokeWidth=1;fontSize=31;" edge="1" parent="1" source="LkHLdnh0RMzw2wmdkYhH-325">
                    <mxGeometry relative="1" as="geometry">
                        <mxPoint x="680" y="519.9999999999998" as="targetPoint"/>
                    </mxGeometry>
                </mxCell>
                <mxCell id="LkHLdnh0RMzw2wmdkYhH-325" value="(-1,0)" style="text;html=1;strokeColor=none;fillColor=none;align=center;verticalAlign=middle;whiteSpace=wrap;rounded=0;labelBackgroundColor=none;fillStyle=solid;fontSize=31;" vertex="1" parent="1">
                    <mxGeometry x="200" y="610" width="60" height="30" as="geometry"/>
                </mxCell>
                <mxCell id="5qYnqCfXjX5k3qRVBmzN-2" value="" style="endArrow=classic;html=1;fontSize=19;startArrow=none;strokeWidth=3;" edge="1" parent="1">
                    <mxGeometry width="50" height="50" relative="1" as="geometry">
                        <mxPoint x="760" y="840" as="sourcePoint"/>
                        <mxPoint x="760" y="80" as="targetPoint"/>
                    </mxGeometry>
                </mxCell>
                <mxCell id="5qYnqCfXjX5k3qRVBmzN-3" value="" style="endArrow=classic;html=1;fontSize=19;strokeWidth=3;" edge="1" parent="1">
                    <mxGeometry width="50" height="50" relative="1" as="geometry">
                        <mxPoint x="40" y="520" as="sourcePoint"/>
                        <mxPoint x="1480" y="520" as="targetPoint"/>
                    </mxGeometry>
                </mxCell>
                <mxCell id="LkHLdnh0RMzw2wmdkYhH-327" value="" style="rounded=0;whiteSpace=wrap;html=1;fontSize=19;labelBackgroundColor=none;fillColor=#8F5069;fillStyle=hatch;container=1;collapsible=0;" vertex="1" parent="1">
                    <mxGeometry x="1250" y="990" width="160" height="80" as="geometry"/>
                </mxCell>
                <mxCell id="LkHLdnh0RMzw2wmdkYhH-328" value="" style="rounded=0;whiteSpace=wrap;html=1;labelBackgroundColor=none;fillStyle=solid;fontSize=19;fillColor=#DBD9DA;gradientColor=none;" vertex="1" parent="LkHLdnh0RMzw2wmdkYhH-327">
                    <mxGeometry x="10" y="10" width="10" height="30" as="geometry"/>
                </mxCell>
                <mxCell id="LkHLdnh0RMzw2wmdkYhH-329" value="" style="ellipse;whiteSpace=wrap;html=1;aspect=fixed;labelBackgroundColor=none;fillStyle=solid;fontSize=19;fillColor=#DBD9DA;gradientColor=none;" vertex="1" parent="LkHLdnh0RMzw2wmdkYhH-327">
                    <mxGeometry x="100" y="60" width="10" height="10" as="geometry"/>
                </mxCell>
                <mxCell id="LkHLdnh0RMzw2wmdkYhH-330" value="" style="rounded=0;whiteSpace=wrap;html=1;labelBackgroundColor=none;fillStyle=solid;fontSize=19;fillColor=#dc9398;gradientColor=none;" vertex="1" parent="LkHLdnh0RMzw2wmdkYhH-327">
                    <mxGeometry x="140" y="25" width="10" height="30" as="geometry"/>
                </mxCell>
                <mxCell id="LkHLdnh0RMzw2wmdkYhH-331" value="" style="rounded=0;whiteSpace=wrap;html=1;fontSize=19;labelBackgroundColor=none;fillColor=#8F5069;fillStyle=hatch;container=1;collapsible=0;" vertex="1" parent="1">
                    <mxGeometry x="1250" y="1070" width="160" height="80" as="geometry"/>
                </mxCell>
                <mxCell id="LkHLdnh0RMzw2wmdkYhH-332" value="" style="rounded=0;whiteSpace=wrap;html=1;labelBackgroundColor=none;fillStyle=solid;fontSize=19;fillColor=#DBD9DA;gradientColor=none;" vertex="1" parent="LkHLdnh0RMzw2wmdkYhH-331">
                    <mxGeometry x="10" y="40" width="10" height="30.000000000000004" as="geometry"/>
                </mxCell>
                <mxCell id="LkHLdnh0RMzw2wmdkYhH-333" value="" style="ellipse;whiteSpace=wrap;html=1;aspect=fixed;labelBackgroundColor=none;fillStyle=solid;fontSize=19;fillColor=#DBD9DA;gradientColor=none;" vertex="1" parent="LkHLdnh0RMzw2wmdkYhH-331">
                    <mxGeometry x="100" y="10.000000000000007" width="9.375" height="9.375" as="geometry"/>
                </mxCell>
                <mxCell id="LkHLdnh0RMzw2wmdkYhH-334" value="" style="rounded=0;whiteSpace=wrap;html=1;labelBackgroundColor=none;fillStyle=solid;fontSize=19;fillColor=#dc9398;gradientColor=none;" vertex="1" parent="LkHLdnh0RMzw2wmdkYhH-331">
                    <mxGeometry x="140" y="25.000000000000004" width="10" height="30.000000000000004" as="geometry"/>
                </mxCell>
                <mxCell id="LkHLdnh0RMzw2wmdkYhH-335" value="" style="rounded=0;whiteSpace=wrap;html=1;fontSize=19;labelBackgroundColor=none;fillColor=#8F5069;fillStyle=hatch;container=1;collapsible=0;" vertex="1" parent="1">
                    <mxGeometry x="1410" y="990" width="160" height="80" as="geometry"/>
                </mxCell>
                <mxCell id="LkHLdnh0RMzw2wmdkYhH-336" value="" style="rounded=0;whiteSpace=wrap;html=1;labelBackgroundColor=none;fillStyle=solid;fontSize=19;fillColor=#DBD9DA;gradientColor=none;" vertex="1" parent="LkHLdnh0RMzw2wmdkYhH-335">
                    <mxGeometry x="140" y="10" width="10" height="30" as="geometry"/>
                </mxCell>
                <mxCell id="LkHLdnh0RMzw2wmdkYhH-337" value="" style="ellipse;whiteSpace=wrap;html=1;aspect=fixed;labelBackgroundColor=none;fillStyle=solid;fontSize=19;fillColor=#DBD9DA;gradientColor=none;" vertex="1" parent="LkHLdnh0RMzw2wmdkYhH-335">
                    <mxGeometry x="60" y="60" width="10" height="10" as="geometry"/>
                </mxCell>
                <mxCell id="LkHLdnh0RMzw2wmdkYhH-338" value="" style="rounded=0;whiteSpace=wrap;html=1;labelBackgroundColor=none;fillStyle=solid;fontSize=19;fillColor=#dc9398;gradientColor=none;" vertex="1" parent="LkHLdnh0RMzw2wmdkYhH-335">
                    <mxGeometry x="10" y="25" width="10" height="30" as="geometry"/>
                </mxCell>
                <mxCell id="LkHLdnh0RMzw2wmdkYhH-339" value="" style="rounded=0;whiteSpace=wrap;html=1;fontSize=19;labelBackgroundColor=none;fillColor=#8F5069;fillStyle=hatch;container=1;collapsible=0;" vertex="1" parent="1">
                    <mxGeometry x="1410" y="1070" width="160" height="80" as="geometry"/>
                </mxCell>
                <mxCell id="LkHLdnh0RMzw2wmdkYhH-340" value="" style="rounded=0;whiteSpace=wrap;html=1;labelBackgroundColor=none;fillStyle=solid;fontSize=19;fillColor=#DBD9DA;gradientColor=none;" vertex="1" parent="LkHLdnh0RMzw2wmdkYhH-339">
                    <mxGeometry x="140" y="40" width="10" height="30.000000000000004" as="geometry"/>
                </mxCell>
                <mxCell id="LkHLdnh0RMzw2wmdkYhH-341" value="" style="ellipse;whiteSpace=wrap;html=1;aspect=fixed;labelBackgroundColor=none;fillStyle=solid;fontSize=19;fillColor=#DBD9DA;gradientColor=none;" vertex="1" parent="LkHLdnh0RMzw2wmdkYhH-339">
                    <mxGeometry x="60" y="10.000000000000007" width="9.375" height="9.375" as="geometry"/>
                </mxCell>
                <mxCell id="LkHLdnh0RMzw2wmdkYhH-342" value="" style="rounded=0;whiteSpace=wrap;html=1;labelBackgroundColor=none;fillStyle=solid;fontSize=19;fillColor=#dc9398;gradientColor=none;" vertex="1" parent="LkHLdnh0RMzw2wmdkYhH-339">
                    <mxGeometry x="10" y="25.000000000000004" width="10" height="30.000000000000004" as="geometry"/>
                </mxCell>
            </root>
        </mxGraphModel>
    </diagram>
    <diagram name="pong game 좌표계 : 공의 이동방향 " id="9zDRe7eZPIrnCutnycpC">
        <mxGraphModel dx="1803" dy="777" grid="1" gridSize="10" guides="1" tooltips="1" connect="1" arrows="1" fold="1" page="1" pageScale="1" pageWidth="1600" pageHeight="1200" math="1" shadow="0">
            <root>
                <mxCell id="1CqgnF9wyETxFuR-4U4P-0"/>
                <mxCell id="1CqgnF9wyETxFuR-4U4P-1" parent="1CqgnF9wyETxFuR-4U4P-0"/>
                <mxCell id="1CqgnF9wyETxFuR-4U4P-2" value="&lt;font style=&quot;font-size: 49px;&quot;&gt;&lt;b&gt;pong game&lt;br&gt;좌표계&lt;br&gt;&lt;/b&gt;&lt;/font&gt;" style="text;strokeColor=none;fillColor=none;align=left;verticalAlign=middle;spacingLeft=4;spacingRight=4;overflow=hidden;points=[[0,0.5],[1,0.5]];portConstraint=eastwest;rotatable=0;whiteSpace=wrap;html=1;" vertex="1" parent="1CqgnF9wyETxFuR-4U4P-1">
                    <mxGeometry x="30" y="20" width="330" height="150" as="geometry"/>
                </mxCell>
                <mxCell id="1CqgnF9wyETxFuR-4U4P-3" value="x" style="text;html=1;strokeColor=none;fillColor=none;align=center;verticalAlign=middle;whiteSpace=wrap;rounded=0;fontSize=34;" vertex="1" parent="1CqgnF9wyETxFuR-4U4P-1">
                    <mxGeometry x="1470" y="495" width="60" height="45" as="geometry"/>
                </mxCell>
                <mxCell id="1CqgnF9wyETxFuR-4U4P-4" value="y" style="text;html=1;strokeColor=none;fillColor=none;align=center;verticalAlign=middle;whiteSpace=wrap;rounded=0;fontSize=34;" vertex="1" parent="1CqgnF9wyETxFuR-4U4P-1">
                    <mxGeometry x="730" y="25" width="60" height="50" as="geometry"/>
                </mxCell>
                <mxCell id="1CqgnF9wyETxFuR-4U4P-5" value="" style="rounded=0;whiteSpace=wrap;html=1;fontSize=19;labelBackgroundColor=none;fillColor=#403152;fillStyle=solid;container=1;collapsible=0;strokeWidth=3;perimeterSpacing=0;" vertex="1" parent="1CqgnF9wyETxFuR-4U4P-1">
                    <mxGeometry x="680" y="440" width="160" height="80" as="geometry"/>
                </mxCell>
                <mxCell id="1CqgnF9wyETxFuR-4U4P-6" value="" style="rounded=0;whiteSpace=wrap;html=1;labelBackgroundColor=none;fillStyle=solid;fontSize=19;fillColor=#DBD9DA;gradientColor=none;" vertex="1" parent="1CqgnF9wyETxFuR-4U4P-5">
                    <mxGeometry x="10" y="10" width="10" height="30" as="geometry"/>
                </mxCell>
                <mxCell id="1CqgnF9wyETxFuR-4U4P-7" value="" style="ellipse;whiteSpace=wrap;html=1;aspect=fixed;labelBackgroundColor=none;fillStyle=solid;fontSize=19;fillColor=#DBD9DA;gradientColor=none;" vertex="1" parent="1CqgnF9wyETxFuR-4U4P-5">
                    <mxGeometry x="100" y="60" width="10" height="10" as="geometry"/>
                </mxCell>
                <mxCell id="1CqgnF9wyETxFuR-4U4P-8" value="" style="rounded=0;whiteSpace=wrap;html=1;labelBackgroundColor=none;fillStyle=solid;fontSize=19;fillColor=#DB9398;gradientColor=none;" vertex="1" parent="1CqgnF9wyETxFuR-4U4P-5">
                    <mxGeometry x="140" y="25" width="10" height="30" as="geometry"/>
                </mxCell>
                <mxCell id="nTQUU7vzK2jOdyaDlmm1-16" style="edgeStyle=none;html=1;strokeWidth=1;fontSize=34;" edge="1" parent="1CqgnF9wyETxFuR-4U4P-5">
                    <mxGeometry relative="1" as="geometry">
                        <mxPoint x="-20" y="-70" as="targetPoint"/>
                        <mxPoint x="99.99999999999977" y="90" as="sourcePoint"/>
                    </mxGeometry>
                </mxCell>
                <mxCell id="1CqgnF9wyETxFuR-4U4P-9" value="" style="rounded=0;whiteSpace=wrap;html=1;fontSize=19;labelBackgroundColor=none;fillColor=#693567;fillStyle=hatch;container=1;collapsible=0;strokeWidth=3;" vertex="1" parent="1CqgnF9wyETxFuR-4U4P-1">
                    <mxGeometry x="680" y="520" width="160" height="80" as="geometry"/>
                </mxCell>
                <mxCell id="1CqgnF9wyETxFuR-4U4P-10" value="" style="rounded=0;whiteSpace=wrap;html=1;labelBackgroundColor=none;fillStyle=solid;fontSize=19;fillColor=#DBD9DA;gradientColor=none;" vertex="1" parent="1CqgnF9wyETxFuR-4U4P-9">
                    <mxGeometry x="10" y="40" width="10" height="30.000000000000004" as="geometry"/>
                </mxCell>
                <mxCell id="1CqgnF9wyETxFuR-4U4P-11" value="" style="ellipse;whiteSpace=wrap;html=1;aspect=fixed;labelBackgroundColor=none;fillStyle=solid;fontSize=19;fillColor=#DBD9DA;gradientColor=none;" vertex="1" parent="1CqgnF9wyETxFuR-4U4P-9">
                    <mxGeometry x="100" y="10.000000000000007" width="9.375" height="9.375" as="geometry"/>
                </mxCell>
                <mxCell id="1CqgnF9wyETxFuR-4U4P-12" value="" style="rounded=0;whiteSpace=wrap;html=1;labelBackgroundColor=none;fillStyle=solid;fontSize=19;fillColor=#DB9398;gradientColor=none;" vertex="1" parent="1CqgnF9wyETxFuR-4U4P-9">
                    <mxGeometry x="140" y="25.000000000000004" width="10" height="30.000000000000004" as="geometry"/>
                </mxCell>
                <mxCell id="1CqgnF9wyETxFuR-4U4P-13" value="O" style="text;html=1;strokeColor=none;fillColor=none;align=center;verticalAlign=middle;whiteSpace=wrap;rounded=0;labelBackgroundColor=none;fillStyle=solid;fontSize=31;" vertex="1" parent="1CqgnF9wyETxFuR-4U4P-9">
                    <mxGeometry x="40" y="-0.31" width="40" height="40.31" as="geometry"/>
                </mxCell>
                <mxCell id="nTQUU7vzK2jOdyaDlmm1-12" style="edgeStyle=none;html=1;strokeWidth=1;fontSize=34;" edge="1" parent="1CqgnF9wyETxFuR-4U4P-9">
                    <mxGeometry relative="1" as="geometry">
                        <mxPoint x="-20" y="149.9999999999999" as="targetPoint"/>
                        <mxPoint x="99.99999999999977" y="-10" as="sourcePoint"/>
                    </mxGeometry>
                </mxCell>
                <mxCell id="1CqgnF9wyETxFuR-4U4P-14" value="" style="rounded=0;whiteSpace=wrap;html=1;fontSize=19;labelBackgroundColor=none;fillColor=#8F5069;fillStyle=hatch;container=1;collapsible=0;" vertex="1" parent="1CqgnF9wyETxFuR-4U4P-1">
                    <mxGeometry x="680" y="280" width="160" height="80" as="geometry"/>
                </mxCell>
                <mxCell id="1CqgnF9wyETxFuR-4U4P-15" value="" style="rounded=0;whiteSpace=wrap;html=1;labelBackgroundColor=none;fillStyle=solid;fontSize=19;fillColor=#DBD9DA;gradientColor=none;" vertex="1" parent="1CqgnF9wyETxFuR-4U4P-14">
                    <mxGeometry x="10" y="10" width="10" height="30" as="geometry"/>
                </mxCell>
                <mxCell id="1CqgnF9wyETxFuR-4U4P-16" value="" style="ellipse;whiteSpace=wrap;html=1;aspect=fixed;labelBackgroundColor=none;fillStyle=solid;fontSize=19;fillColor=#DBD9DA;gradientColor=none;" vertex="1" parent="1CqgnF9wyETxFuR-4U4P-14">
                    <mxGeometry x="100" y="60" width="10" height="10" as="geometry"/>
                </mxCell>
                <mxCell id="1CqgnF9wyETxFuR-4U4P-17" value="" style="rounded=0;whiteSpace=wrap;html=1;labelBackgroundColor=none;fillStyle=solid;fontSize=19;fillColor=#dc9398;gradientColor=none;" vertex="1" parent="1CqgnF9wyETxFuR-4U4P-14">
                    <mxGeometry x="140" y="25" width="10" height="30" as="geometry"/>
                </mxCell>
                <mxCell id="nTQUU7vzK2jOdyaDlmm1-14" style="edgeStyle=none;html=1;strokeWidth=1;fontSize=34;" edge="1" parent="1CqgnF9wyETxFuR-4U4P-14">
                    <mxGeometry relative="1" as="geometry">
                        <mxPoint x="-20" y="-70" as="targetPoint"/>
                        <mxPoint x="99.99999999999955" y="90" as="sourcePoint"/>
                    </mxGeometry>
                </mxCell>
                <mxCell id="1CqgnF9wyETxFuR-4U4P-18" value="" style="rounded=0;whiteSpace=wrap;html=1;fontSize=19;labelBackgroundColor=none;fillColor=#8F5069;fillStyle=hatch;container=1;collapsible=0;" vertex="1" parent="1CqgnF9wyETxFuR-4U4P-1">
                    <mxGeometry x="680" y="360" width="160" height="80" as="geometry"/>
                </mxCell>
                <mxCell id="1CqgnF9wyETxFuR-4U4P-19" value="" style="rounded=0;whiteSpace=wrap;html=1;labelBackgroundColor=none;fillStyle=solid;fontSize=19;fillColor=#DBD9DA;gradientColor=none;" vertex="1" parent="1CqgnF9wyETxFuR-4U4P-18">
                    <mxGeometry x="10" y="40" width="10" height="30.000000000000004" as="geometry"/>
                </mxCell>
                <mxCell id="1CqgnF9wyETxFuR-4U4P-20" value="" style="ellipse;whiteSpace=wrap;html=1;aspect=fixed;labelBackgroundColor=none;fillStyle=solid;fontSize=19;fillColor=#DBD9DA;gradientColor=none;" vertex="1" parent="1CqgnF9wyETxFuR-4U4P-18">
                    <mxGeometry x="100" y="10.000000000000007" width="9.375" height="9.375" as="geometry"/>
                </mxCell>
                <mxCell id="1CqgnF9wyETxFuR-4U4P-21" value="" style="rounded=0;whiteSpace=wrap;html=1;labelBackgroundColor=none;fillStyle=solid;fontSize=19;fillColor=#dc9398;gradientColor=none;" vertex="1" parent="1CqgnF9wyETxFuR-4U4P-18">
                    <mxGeometry x="140" y="25.000000000000004" width="10" height="30.000000000000004" as="geometry"/>
                </mxCell>
                <mxCell id="nTQUU7vzK2jOdyaDlmm1-13" style="edgeStyle=none;html=1;strokeWidth=1;fontSize=34;" edge="1" parent="1CqgnF9wyETxFuR-4U4P-18">
                    <mxGeometry relative="1" as="geometry">
                        <mxPoint x="-20" y="150" as="targetPoint"/>
                        <mxPoint x="99.99999999999955" y="-10" as="sourcePoint"/>
                    </mxGeometry>
                </mxCell>
                <mxCell id="1CqgnF9wyETxFuR-4U4P-22" value="" style="rounded=0;whiteSpace=wrap;html=1;fontSize=19;labelBackgroundColor=none;fillColor=#8F5069;fillStyle=hatch;container=1;collapsible=0;" vertex="1" parent="1CqgnF9wyETxFuR-4U4P-1">
                    <mxGeometry x="680" y="600" width="160" height="80" as="geometry"/>
                </mxCell>
                <mxCell id="1CqgnF9wyETxFuR-4U4P-23" value="" style="rounded=0;whiteSpace=wrap;html=1;labelBackgroundColor=none;fillStyle=solid;fontSize=19;fillColor=#DBD9DA;gradientColor=none;" vertex="1" parent="1CqgnF9wyETxFuR-4U4P-22">
                    <mxGeometry x="10" y="10" width="10" height="30" as="geometry"/>
                </mxCell>
                <mxCell id="1CqgnF9wyETxFuR-4U4P-24" value="" style="ellipse;whiteSpace=wrap;html=1;aspect=fixed;labelBackgroundColor=none;fillStyle=solid;fontSize=19;fillColor=#DBD9DA;gradientColor=none;" vertex="1" parent="1CqgnF9wyETxFuR-4U4P-22">
                    <mxGeometry x="100" y="60" width="10" height="10" as="geometry"/>
                </mxCell>
                <mxCell id="1CqgnF9wyETxFuR-4U4P-25" value="" style="rounded=0;whiteSpace=wrap;html=1;labelBackgroundColor=none;fillStyle=solid;fontSize=19;fillColor=#dc9398;gradientColor=none;" vertex="1" parent="1CqgnF9wyETxFuR-4U4P-22">
                    <mxGeometry x="140" y="25" width="10" height="30" as="geometry"/>
                </mxCell>
                <mxCell id="nTQUU7vzK2jOdyaDlmm1-11" style="edgeStyle=none;html=1;strokeWidth=1;fontSize=34;" edge="1" parent="1CqgnF9wyETxFuR-4U4P-22">
                    <mxGeometry relative="1" as="geometry">
                        <mxPoint x="-20" y="-70" as="targetPoint"/>
                        <mxPoint x="99.99999999999977" y="90" as="sourcePoint"/>
                    </mxGeometry>
                </mxCell>
                <mxCell id="1CqgnF9wyETxFuR-4U4P-26" value="" style="rounded=0;whiteSpace=wrap;html=1;fontSize=19;labelBackgroundColor=none;fillColor=#8F5069;fillStyle=hatch;container=1;collapsible=0;" vertex="1" parent="1CqgnF9wyETxFuR-4U4P-1">
                    <mxGeometry x="680" y="680" width="160" height="80" as="geometry"/>
                </mxCell>
                <mxCell id="1CqgnF9wyETxFuR-4U4P-27" value="" style="rounded=0;whiteSpace=wrap;html=1;labelBackgroundColor=none;fillStyle=solid;fontSize=19;fillColor=#DBD9DA;gradientColor=none;" vertex="1" parent="1CqgnF9wyETxFuR-4U4P-26">
                    <mxGeometry x="10" y="40" width="10" height="30.000000000000004" as="geometry"/>
                </mxCell>
                <mxCell id="1CqgnF9wyETxFuR-4U4P-28" value="" style="ellipse;whiteSpace=wrap;html=1;aspect=fixed;labelBackgroundColor=none;fillStyle=solid;fontSize=19;fillColor=#DBD9DA;gradientColor=none;" vertex="1" parent="1CqgnF9wyETxFuR-4U4P-26">
                    <mxGeometry x="100" y="10.000000000000007" width="9.375" height="9.375" as="geometry"/>
                </mxCell>
                <mxCell id="1CqgnF9wyETxFuR-4U4P-29" value="" style="rounded=0;whiteSpace=wrap;html=1;labelBackgroundColor=none;fillStyle=solid;fontSize=19;fillColor=#dc9398;gradientColor=none;" vertex="1" parent="1CqgnF9wyETxFuR-4U4P-26">
                    <mxGeometry x="140" y="25.000000000000004" width="10" height="30.000000000000004" as="geometry"/>
                </mxCell>
                <mxCell id="nTQUU7vzK2jOdyaDlmm1-15" style="edgeStyle=none;html=1;strokeWidth=1;fontSize=34;" edge="1" parent="1CqgnF9wyETxFuR-4U4P-26">
                    <mxGeometry relative="1" as="geometry">
                        <mxPoint x="-20" y="150" as="targetPoint"/>
                        <mxPoint x="99.99999999999977" y="-10" as="sourcePoint"/>
                    </mxGeometry>
                </mxCell>
                <mxCell id="1CqgnF9wyETxFuR-4U4P-37" value="" style="endArrow=classic;html=1;fontSize=19;startArrow=none;strokeWidth=3;" edge="1" parent="1CqgnF9wyETxFuR-4U4P-1">
                    <mxGeometry width="50" height="50" relative="1" as="geometry">
                        <mxPoint x="760" y="960" as="sourcePoint"/>
                        <mxPoint x="760" y="80" as="targetPoint"/>
                    </mxGeometry>
                </mxCell>
                <mxCell id="1CqgnF9wyETxFuR-4U4P-38" value="" style="endArrow=classic;html=1;fontSize=19;strokeWidth=3;" edge="1" parent="1CqgnF9wyETxFuR-4U4P-1">
                    <mxGeometry width="50" height="50" relative="1" as="geometry">
                        <mxPoint x="40" y="520" as="sourcePoint"/>
                        <mxPoint x="1480" y="520" as="targetPoint"/>
                    </mxGeometry>
                </mxCell>
                <mxCell id="1CqgnF9wyETxFuR-4U4P-39" value="" style="rounded=0;whiteSpace=wrap;html=1;fontSize=19;labelBackgroundColor=none;fillColor=#8F5069;fillStyle=hatch;container=1;collapsible=0;" vertex="1" parent="1CqgnF9wyETxFuR-4U4P-1">
                    <mxGeometry x="1250" y="990" width="160" height="80" as="geometry"/>
                </mxCell>
                <mxCell id="1CqgnF9wyETxFuR-4U4P-40" value="" style="rounded=0;whiteSpace=wrap;html=1;labelBackgroundColor=none;fillStyle=solid;fontSize=19;fillColor=#DBD9DA;gradientColor=none;" vertex="1" parent="1CqgnF9wyETxFuR-4U4P-39">
                    <mxGeometry x="10" y="10" width="10" height="30" as="geometry"/>
                </mxCell>
                <mxCell id="1CqgnF9wyETxFuR-4U4P-41" value="" style="ellipse;whiteSpace=wrap;html=1;aspect=fixed;labelBackgroundColor=none;fillStyle=solid;fontSize=19;fillColor=#DBD9DA;gradientColor=none;" vertex="1" parent="1CqgnF9wyETxFuR-4U4P-39">
                    <mxGeometry x="100" y="60" width="10" height="10" as="geometry"/>
                </mxCell>
                <mxCell id="1CqgnF9wyETxFuR-4U4P-42" value="" style="rounded=0;whiteSpace=wrap;html=1;labelBackgroundColor=none;fillStyle=solid;fontSize=19;fillColor=#dc9398;gradientColor=none;" vertex="1" parent="1CqgnF9wyETxFuR-4U4P-39">
                    <mxGeometry x="140" y="25" width="10" height="30" as="geometry"/>
                </mxCell>
                <mxCell id="1CqgnF9wyETxFuR-4U4P-43" value="" style="rounded=0;whiteSpace=wrap;html=1;fontSize=19;labelBackgroundColor=none;fillColor=#8F5069;fillStyle=hatch;container=1;collapsible=0;" vertex="1" parent="1CqgnF9wyETxFuR-4U4P-1">
                    <mxGeometry x="1250" y="1070" width="160" height="80" as="geometry"/>
                </mxCell>
                <mxCell id="1CqgnF9wyETxFuR-4U4P-44" value="" style="rounded=0;whiteSpace=wrap;html=1;labelBackgroundColor=none;fillStyle=solid;fontSize=19;fillColor=#DBD9DA;gradientColor=none;" vertex="1" parent="1CqgnF9wyETxFuR-4U4P-43">
                    <mxGeometry x="10" y="40" width="10" height="30.000000000000004" as="geometry"/>
                </mxCell>
                <mxCell id="1CqgnF9wyETxFuR-4U4P-45" value="" style="ellipse;whiteSpace=wrap;html=1;aspect=fixed;labelBackgroundColor=none;fillStyle=solid;fontSize=19;fillColor=#DBD9DA;gradientColor=none;" vertex="1" parent="1CqgnF9wyETxFuR-4U4P-43">
                    <mxGeometry x="100" y="10.000000000000007" width="9.375" height="9.375" as="geometry"/>
                </mxCell>
                <mxCell id="1CqgnF9wyETxFuR-4U4P-46" value="" style="rounded=0;whiteSpace=wrap;html=1;labelBackgroundColor=none;fillStyle=solid;fontSize=19;fillColor=#dc9398;gradientColor=none;" vertex="1" parent="1CqgnF9wyETxFuR-4U4P-43">
                    <mxGeometry x="140" y="25.000000000000004" width="10" height="30.000000000000004" as="geometry"/>
                </mxCell>
                <mxCell id="1CqgnF9wyETxFuR-4U4P-47" value="" style="rounded=0;whiteSpace=wrap;html=1;fontSize=19;labelBackgroundColor=none;fillColor=#8F5069;fillStyle=hatch;container=1;collapsible=0;" vertex="1" parent="1CqgnF9wyETxFuR-4U4P-1">
                    <mxGeometry x="1410" y="990" width="160" height="80" as="geometry"/>
                </mxCell>
                <mxCell id="1CqgnF9wyETxFuR-4U4P-48" value="" style="rounded=0;whiteSpace=wrap;html=1;labelBackgroundColor=none;fillStyle=solid;fontSize=19;fillColor=#DBD9DA;gradientColor=none;" vertex="1" parent="1CqgnF9wyETxFuR-4U4P-47">
                    <mxGeometry x="140" y="10" width="10" height="30" as="geometry"/>
                </mxCell>
                <mxCell id="1CqgnF9wyETxFuR-4U4P-49" value="" style="ellipse;whiteSpace=wrap;html=1;aspect=fixed;labelBackgroundColor=none;fillStyle=solid;fontSize=19;fillColor=#DBD9DA;gradientColor=none;" vertex="1" parent="1CqgnF9wyETxFuR-4U4P-47">
                    <mxGeometry x="60" y="60" width="10" height="10" as="geometry"/>
                </mxCell>
                <mxCell id="1CqgnF9wyETxFuR-4U4P-50" value="" style="rounded=0;whiteSpace=wrap;html=1;labelBackgroundColor=none;fillStyle=solid;fontSize=19;fillColor=#dc9398;gradientColor=none;" vertex="1" parent="1CqgnF9wyETxFuR-4U4P-47">
                    <mxGeometry x="10" y="25" width="10" height="30" as="geometry"/>
                </mxCell>
                <mxCell id="1CqgnF9wyETxFuR-4U4P-51" value="" style="rounded=0;whiteSpace=wrap;html=1;fontSize=19;labelBackgroundColor=none;fillColor=#8F5069;fillStyle=hatch;container=1;collapsible=0;" vertex="1" parent="1CqgnF9wyETxFuR-4U4P-1">
                    <mxGeometry x="1410" y="1070" width="160" height="80" as="geometry"/>
                </mxCell>
                <mxCell id="1CqgnF9wyETxFuR-4U4P-52" value="" style="rounded=0;whiteSpace=wrap;html=1;labelBackgroundColor=none;fillStyle=solid;fontSize=19;fillColor=#DBD9DA;gradientColor=none;" vertex="1" parent="1CqgnF9wyETxFuR-4U4P-51">
                    <mxGeometry x="140" y="40" width="10" height="30.000000000000004" as="geometry"/>
                </mxCell>
                <mxCell id="1CqgnF9wyETxFuR-4U4P-53" value="" style="ellipse;whiteSpace=wrap;html=1;aspect=fixed;labelBackgroundColor=none;fillStyle=solid;fontSize=19;fillColor=#DBD9DA;gradientColor=none;" vertex="1" parent="1CqgnF9wyETxFuR-4U4P-51">
                    <mxGeometry x="60" y="10.000000000000007" width="9.375" height="9.375" as="geometry"/>
                </mxCell>
                <mxCell id="1CqgnF9wyETxFuR-4U4P-54" value="" style="rounded=0;whiteSpace=wrap;html=1;labelBackgroundColor=none;fillStyle=solid;fontSize=19;fillColor=#dc9398;gradientColor=none;" vertex="1" parent="1CqgnF9wyETxFuR-4U4P-51">
                    <mxGeometry x="10" y="25.000000000000004" width="10" height="30.000000000000004" as="geometry"/>
                </mxCell>
                <mxCell id="nTQUU7vzK2jOdyaDlmm1-4" style="edgeStyle=none;html=1;strokeWidth=1;fontSize=34;" edge="1" parent="1CqgnF9wyETxFuR-4U4P-1">
                    <mxGeometry relative="1" as="geometry">
                        <mxPoint x="960" y="320" as="targetPoint"/>
                        <mxPoint x="1080" y="480" as="sourcePoint"/>
                    </mxGeometry>
                </mxCell>
                <mxCell id="nTQUU7vzK2jOdyaDlmm1-3" style="edgeStyle=none;html=1;strokeWidth=1;fontSize=34;" edge="1" parent="1CqgnF9wyETxFuR-4U4P-1">
                    <mxGeometry relative="1" as="geometry">
                        <mxPoint x="960" y="640" as="targetPoint"/>
                        <mxPoint x="1080" y="480" as="sourcePoint"/>
                    </mxGeometry>
                </mxCell>
                <mxCell id="PUxVM80rYCl6e2eVfKGz-0" value="\( f(x, y) = (x, |y|\mod 1) \)" style="text;html=1;strokeColor=none;fillColor=none;align=center;verticalAlign=middle;whiteSpace=wrap;rounded=0;labelBackgroundColor=none;fillStyle=hatch;strokeWidth=3;fontSize=34;" vertex="1" parent="1CqgnF9wyETxFuR-4U4P-1">
                    <mxGeometry x="940" y="180" width="540" height="50" as="geometry"/>
                </mxCell>
            </root>
        </mxGraphModel>
    </diagram>
</mxfile>